<?xml version="1.0" encoding="UTF-8" standalone="no"?>
<svg
   width="172"
   height="56"
   viewBox="0 0 172 56"
   version="1.1"
   id="svg5"
   sodipodi:docname="aegis-header-logo-en.svg"
   inkscape:version="1.3.2 (091e20e, 2023-11-25, custom)"
   xmlns:inkscape="http://www.inkscape.org/namespaces/inkscape"
   xmlns:sodipodi="http://sodipodi.sourceforge.net/DTD/sodipodi-0.dtd"
   xmlns="http://www.w3.org/2000/svg"
   xmlns:svg="http://www.w3.org/2000/svg">
  <defs
     id="defs5" />
  <sodipodi:namedview
     id="namedview5"
     pagecolor="#16181d"
     bordercolor="#000000"
     borderopacity="0.25"
     inkscape:showpageshadow="2"
     inkscape:pageopacity="0.0"
     inkscape:pagecheckerboard="0"
     inkscape:deskcolor="#d1d1d1"
     inkscape:zoom="4.277439"
     inkscape:cx="69.317177"
     inkscape:cy="27.703493"
     inkscape:window-width="1920"
     inkscape:window-height="1009"
     inkscape:window-x="1912"
     inkscape:window-y="-8"
     inkscape:window-maximized="1"
     inkscape:current-layer="svg5" />
  <g
     id="g5">
    <path
       fill="#ffffff"
       d="M 148.655,0.756 V 38.65 l 7.226,-7.314 v -14.19 l 9.827,5.839 5.287,-4.429 z"
       id="path1"
       style="fill-rule:nonzero" />
    <path
       fill="#ef3b32"
       d="m 148.873,0.16 -23.191,18.482 23.204,20.85 7.679,-7.68 v -8.096 h 9.17 L 172.09,18.659 148.873,0.161 Z m 16.78,22.253 -10.146,-6.169 v 15.114 l -6.637,6.637 0.001,-36.48 21.52,17.13 z"
       id="path2"
       style="fill-rule:nonzero" />
    <path
       fill="#ffffff"
       d="M 3.567,50.546 C 3.52,49.956 3.206,49.785 2.939,49.785 c -0.38,0 -0.59,0.248 -0.59,0.676 0,1.17 2.398,1.732 2.398,3.597 0,1.133 -0.761,1.762 -1.865,1.762 -1.095,0 -1.723,-0.876 -1.77,-1.904 l 1.123,-0.162 c 0.047,0.695 0.323,1.037 0.704,1.037 0.41,0 0.686,-0.218 0.686,-0.628 0,-1.36 -2.399,-1.723 -2.399,-3.692 0,-1.096 0.666,-1.714 1.827,-1.714 0.961,0 1.532,0.695 1.637,1.666 z m 19.461,3.484 c 0,0.514 0.152,0.761 0.628,0.761 0.476,0 0.628,-0.247 0.628,-0.761 v -3.484 c 0,-0.513 -0.152,-0.761 -0.628,-0.761 -0.476,0 -0.628,0.248 -0.628,0.761 z m -1.18,-3.512 c 0,-0.971 0.57,-1.76 1.808,-1.76 1.237,0 1.808,0.789 1.808,1.76 v 3.54 c 0,0.971 -0.57,1.762 -1.808,1.762 -1.238,0 -1.809,-0.791 -1.809,-1.762 v -3.54 z m 20.716,5.206 v -6.872 h 3.293 v 1.028 h -2.113 v 1.77 h 1.58 v 1.028 h -1.58 v 3.046 z M 64.099,49.88 h -1.142 v -1.028 h 3.464 v 1.028 h -1.142 v 5.844 H 64.1 Z m 22.039,-1.028 h 0.971 l 0.8,4.378 h 0.018 l 0.657,-4.378 h 1.104 l -1.209,6.872 h -0.99 l -0.856,-4.54 h -0.02 l -0.798,4.54 h -0.99 l -1.304,-6.872 h 1.104 l 0.723,4.378 h 0.02 z m 22.172,4.321 h 0.953 l -0.466,-2.95 h -0.02 l -0.466,2.95 z m -0.38,2.55 h -1.141 l 1.265,-6.871 h 1.466 l 1.266,6.872 h -1.143 l -0.209,-1.523 h -1.294 l -0.21,1.523 z m 21.135,-3.787 h 0.419 c 0.638,0 0.876,-0.239 0.876,-1.057 0,-0.819 -0.238,-1.056 -0.876,-1.056 h -0.419 z m 0,3.788 h -1.18 v -6.872 h 1.656 c 1.323,0 1.999,0.562 1.999,2.027 0,1.104 -0.428,1.551 -0.828,1.733 l 0.999,3.112 h -1.2 l -0.836,-2.846 c -0.152,0.019 -0.4,0.029 -0.61,0.029 z m 19.747,0 v -6.872 h 3.16 v 1.028 h -1.98 v 1.77 h 1.522 v 1.028 h -1.522 v 2.018 h 2.113 v 1.028 z M 4.466,42.46 l -4.07,-0.009 12.7,-19.044 2.123,0.009 12.74,19.168 -4.098,0.016 -3.916,-5.85 -11.58,-0.016 -3.899,5.725 z m 5.796,-8.585 7.783,-0.016 -3.892,-6.015 z m 20.954,8.708 V 23.408 h 19.237 l -0.035,2.909 H 34.83 v 4.826 h 13.686 v 2.949 H 34.83 v 5.583 h 16.176 v 2.948 z m 55.302,-19.182 3.587,-0.002 0.017,19.185 -3.608,0.01 z m -7.153,9.301 0.04,7.84 c 0,0 -2.826,2.442 -11.38,2.442 -10.274,0 -14.702,-5.655 -14.702,-9.976 0,-7.114 8.396,-10.008 14.943,-10.008 8.199,0 12.156,4.878 12.156,4.878 l -3.305,1.32 c 0,0 -2.512,-3.238 -8.79,-3.238 -7.139,0 -11.373,3.085 -11.373,7.139 0,4.56 5.82,6.874 9.787,6.874 5.816,0 9.12,-1.124 9.12,-1.124 l 0.007,-3.166 -10.383,0.06 0.015,-3.023 z m 40.45,-5.42 c 0,0 -2.137,-4.296 -11.104,-4.296 -10.377,0 -12.889,2.6 -12.889,5.221 0,1.873 1.785,3.371 3.57,3.9 1.784,0.529 4.56,1.058 7.468,1.454 2.908,0.397 6.159,0.906 7.775,1.335 0.994,0.264 2.338,1.045 2.338,1.904 0,0.859 -1.057,1.719 -3.172,2.446 -2.115,0.727 -5.023,0.815 -6.412,0.815 -3.503,0 -5.343,-0.407 -6.84,-0.937 -2.479,-0.874 -3.206,-1.927 -3.206,-1.927 l -3.085,1.828 c 0,0 2.522,1.929 4.67,2.688 2.182,0.771 5.442,1.212 8.858,1.212 2.908,0 6.764,-0.463 9.517,-1.895 2.385,-1.24 3.217,-2.511 3.217,-4.296 0,-2.093 -2.049,-4.054 -5.826,-4.842 -3.182,-0.665 -4.41,-0.774 -7.04,-1.195 -2.565,-0.41 -5.65,-0.958 -6.722,-1.248 -0.88,-0.238 -1.518,-0.712 -1.518,-1.308 0,-0.594 1.101,-1.343 2.49,-1.674 1.387,-0.33 3.634,-0.551 5.815,-0.551 2.182,0 5.873,0.43 7.073,1.102 1.283,0.717 1.718,1.52 1.718,1.52 z"
       id="path3"
       style="fill-rule:nonzero" />
  </g>
</svg>
